<?xml version="1.0" encoding="utf-8"?>
<!-- Generator: Adobe Illustrator 21.0.0, SVG Export Plug-In . SVG Version: 6.00 Build 0)  -->
<svg version="1.1" id="Layer_1" xmlns="http://www.w3.org/2000/svg" xmlns:xlink="http://www.w3.org/1999/xlink" x="0px" y="0px"
	 viewBox="0 0 841.9 595.3" style="enable-background:new 0 0 841.9 595.3;" xml:space="preserve">
<style type="text/css">
	.st0{fill:#61DAFB;}
	.st1{fill:#FED142;}
</style>
<g>
	<path class="st0" d="M666.3,296.5c0-32.5-40.7-63.3-103.1-82.4c14.4-63.6,8-114.2-20.2-130.4c-6.5-3.8-14.1-5.6-22.4-5.6v22.3
		c4.6,0,8.3,0.9,11.4,2.6c13.6,7.8,19.5,37.5,14.9,75.7c-1.1,9.4-2.9,19.3-5.1,29.4c-19.6-4.8-41-8.5-63.5-10.9
		c-13.5-18.5-27.5-35.3-41.6-50c32.6-30.3,63.2-46.9,84-46.9V78c-27.5,0-63.5,19.6-99.9,53.6c-36.4-33.8-72.4-53.2-99.9-53.2v22.3
		c20.7,0,51.4,16.5,84,46.6c-14,14.7-28,31.4-41.3,49.9c-22.6,2.4-44,6.1-63.6,11c-2.3-10-4-19.7-5.2-29
		c-4.7-38.2,1.1-67.9,14.6-75.8c3-1.8,6.9-2.6,11.5-2.6V78.5c-8.4,0-16,1.8-22.6,5.6c-28.1,16.2-34.4,66.7-19.9,130.1
		c-62.2,19.2-102.7,49.9-102.7,82.3c0,32.5,40.7,63.3,103.1,82.4c-14.4,63.6-8,114.2,20.2,130.4c6.5,3.8,14.1,5.6,22.5,5.6
		c27.5,0,63.5-19.6,99.9-53.6c36.4,33.8,72.4,53.2,99.9,53.2c8.4,0,16-1.8,22.6-5.6c28.1-16.2,34.4-66.7,19.9-130.1
		C625.8,359.7,666.3,328.9,666.3,296.5L666.3,296.5z M536.1,229.8c-3.7,12.9-8.3,26.2-13.5,39.5c-4.1-8-8.4-16-13.1-24
		c-4.6-8-9.5-15.8-14.4-23.4C509.3,224,523,226.6,536.1,229.8L536.1,229.8z M490.3,336.3c-7.8,13.5-15.8,26.3-24.1,38.2
		c-14.9,1.3-30,2-45.2,2c-15.1,0-30.2-0.7-45-1.9c-8.3-11.9-16.4-24.6-24.2-38c-7.6-13.1-14.5-26.4-20.8-39.8
		c6.2-13.4,13.2-26.8,20.7-39.9c7.8-13.5,15.8-26.3,24.1-38.2c14.9-1.3,30-2,45.2-2c15.1,0,30.2,0.7,45,1.9
		c8.3,11.9,16.4,24.6,24.2,38c7.6,13.1,14.5,26.4,20.8,39.8C504.7,309.8,497.8,323.2,490.3,336.3L490.3,336.3z M522.6,323.3
		c5.4,13.4,10,26.8,13.8,39.8c-13.1,3.2-26.9,5.9-41.2,8c4.9-7.7,9.8-15.6,14.4-23.7C514.2,339.4,518.5,331.3,522.6,323.3
		L522.6,323.3z M421.2,430c-9.3-9.6-18.6-20.3-27.8-32c9,0.4,18.2,0.7,27.5,0.7c9.4,0,18.7-0.2,27.8-0.7
		C439.7,409.7,430.4,420.4,421.2,430z M346.8,371.1c-14.2-2.1-27.9-4.7-41-7.9c3.7-12.9,8.3-26.2,13.5-39.5c4.1,8,8.4,16,13.1,24
		S341.9,363.5,346.8,371.1z M420.7,163c9.3,9.6,18.6,20.3,27.8,32c-9-0.4-18.2-0.7-27.5-0.7c-9.4,0-18.7,0.2-27.8,0.7
		C402.2,183.3,411.5,172.6,420.7,163z M346.7,221.9c-4.9,7.7-9.8,15.6-14.4,23.7c-4.6,8-8.9,16-13,24c-5.4-13.4-10-26.8-13.8-39.8
		C318.6,226.7,332.4,224,346.7,221.9L346.7,221.9z M256.2,347.1c-35.4-15.1-58.3-34.9-58.3-50.6s22.9-35.6,58.3-50.6
		c8.6-3.7,18-7,27.7-10.1c5.7,19.6,13.2,40,22.5,60.9c-9.2,20.8-16.6,41.1-22.2,60.6C274.3,354.2,264.9,350.8,256.2,347.1
		L256.2,347.1z M310,490c-13.6-7.8-19.5-37.5-14.9-75.7c1.1-9.4,2.9-19.3,5.1-29.4c19.6,4.8,41,8.5,63.5,10.9
		c13.5,18.5,27.5,35.3,41.6,50c-32.6,30.3-63.2,46.9-84,46.9C316.8,492.6,313,491.7,310,490L310,490z M547.2,413.8
		c4.7,38.2-1.1,67.9-14.6,75.8c-3,1.8-6.9,2.6-11.5,2.6c-20.7,0-51.4-16.5-84-46.6c14-14.7,28-31.4,41.3-49.9
		c22.6-2.4,44-6.1,63.6-11C544.3,394.8,546.1,404.5,547.2,413.8z M585.7,347.1c-8.6,3.7-18,7-27.7,10.1c-5.7-19.6-13.2-40-22.5-60.9
		c9.2-20.8,16.6-41.1,22.2-60.6c9.9,3.1,19.3,6.5,28.1,10.2c35.4,15.1,58.3,34.9,58.3,50.6C644,312.2,621.1,332.1,585.7,347.1
		L585.7,347.1z"/>
	<path class="st0" d="M520.5,78.1"/>
</g>
<g>
	<path class="st0" d="M410.9,224c4,0,8.1,0,12.1,0c-0.1,0.3,0.2,0.3,0.3,0.3c0.7,0,1.4,0.1,2.1,0.1c1.4,0.1,2.8,0.3,4.2,0.5
		c2,0.3,3.9,0.7,5.8,1.2c3.1,0.8,6.1,2,8.9,3.7c2.2,1.4,4,3.1,5.5,5.2c1.6,2.4,2.1,5.1,2.1,8c-0.1,9.9,0,19.9,0,29.8
		c0,1.4-0.1,2.7-0.3,4.1c-0.8,5.1-3.3,9.2-7.9,11.8c-3.4,2-7.1,2.9-11.1,2.9c-10.9,0-21.8,0-32.7,0c-1.5,0-3,0-4.5,0.3
		c-3.7,0.6-7.1,1.8-9.8,4.6c-2,2-3.4,4.3-4.4,6.9c-1,2.6-1.4,5.3-1.4,8.1c0,5.3,0,10.6,0,15.9c0,0.5-0.1,0.7-0.7,0.7
		c-3.5,0-6.9-0.1-10.4,0c-4.6,0.1-8.5-1.7-11.7-4.8c-3.2-3.1-5.1-6.9-6.4-11.1c-1.2-3.9-1.9-7.8-2.2-11.9c0-0.3,0.2-0.6-0.3-0.8
		c0-3.9,0-7.7,0-11.6c0.4,0,0.2-0.3,0.2-0.5c0.2-2.1,0.4-4.2,0.9-6.3c0.9-4.5,2.3-8.7,5-12.5c2.5-3.6,5.8-6.2,10-7.6
		c2.3-0.8,4.7-0 .9,7.1-0.9c15.3,0,30.6,0,45.9,0c0.2,0,0.3,0,0.5,0c0.4,0,0.5-0.1,0.5-0.5c0-1.2-0.1-2.3,0-3.5
		c0-0.7-0.2-0.9-0.9-0.9c-10.7,0-21.5,0-32.2,0c-0.7,0-0.8-0.2-0.8-0.8c0-4.8,0-9.7,0-14.5c0-0.6-0.1-1.1,0-1.7
		c0.2-2.8,1.6-5,3.5-6.8c2.6-2.4,5.7-3.9,9-4.9c4.3-1.4,8.7-1.9,13.2-2.3C410.4,224.2,410.8,224.4,410.9,224z M400.6,249
		c3.4,0,6.1-2.7,6.1-6.1c0-3.3-2.7-6.1-6-6.1c-3.4,0-6.1,2.7-6.2,6C394.5,246.3,397.2,249,400.6,249z"/>
	<path class="st1" d="M492.7,288.8c0,7.1,0,14.2,0,21.2c-0.2,0.2-0.2,0.2-0.3,0.5c-0.7,3.9-1.7,7.6-3.5,11.2
		c-2.3,4.3-5.4,7.8-10,9.8c-2.8,1.2-5.7,1.6-8.7,1.6c-13.7-0.1-27.5,0-41.2,0c-1.7,0-3.5,0-5.2,0c-0.5,0-0.6,0.1-0.6,0.6
		c0,1.2,0,2.3,0,3.5c0,0.6,0.1,0.8,0.8,0.8c10.8,0,21.6,0,32.4,0c0.6,0,0.8,0.2,0.8,0.8c0,5-0.1,10,0,15c0.1,2.6-0.8,4.8-2.4,6.8
		c-1.5,1.9-3.4,3.3-5.6,4.3c-5.3,2.6-10.9,3.6-16.7,4.1c-2.3,0.2-4.6,0.3-6.9,0.3c-0.1,0-0.5-0.2-0.4,0.2c-0.8,0-1.6,0-2.4,0
		c0,0,0.1-0.1,0.1-0.1c0,0,0,0,0,0c-0.2-0.1-0.4-0.1-0.6-0.1c-3.9-0.1-7.9-0.3-11.8-1c-4.2-0.7-8.3-1.8-12.1-3.9
		c-2.8-1.6-5.3-3.6-6.9-6.4c-1.4-2.3-1.8-4.9-1.8-7.6c0.1-10,0-20,0-29.9c0-1.6,0.1-3.2,0.4-4.8c0.8-4.4,3-7.9,6.7-10.3
		c3.7-2.5,7.9-3.5,12.3-3.5c11,0,22,0,33,0c0.3,0,0.6,0.1,0.9,0c1.6-0.3,3.2-0.3,4.7-0.6c4.2-1,7.7-3.1,10.2-6.7
		c2.6-3.7,3.7-7.9,3.7-12.4c0-5.4,0-10.7,0-16.1c0-0.6,0.2-0.7,0.7-0.7c3.7,0,7.3,0,11,0c1.7,0,3.3,0.2,4.8,0.8
		c3.2,1.2,5.9,3.2,8.1,6c1.9,2.4,3.2,5,4.2,7.8c1,2.8,1.8,5.7,2.2,8.7C492.5,288.6,492.4,288.9,492.7,288.8z M436.4,352.3
		c0,3.3,2.7,6.1,6.1,6.1c3.3,0,6.1-2.7,6.1-6.1c0-3.3-2.7-6.1-6.1-6.1C439.2,346.2,436.4,348.9,436.4,352.3z"/>
</g>
</svg>
